<svg width="32" height="32" viewBox="0 0 32 32" fill="none" xmlns="http://www.w3.org/2000/svg">
<g clip-path="url(#clip0_2988_4279)">
<path d="M18.08 14.32C18.08 14.24 18 14.24 18 14.16H19.84L20.24 12.72H12.24L11.76 14.48H14C14.48 14.48 14.88 14.56 15.2 14.72C15.52 14.88 15.68 15.12 15.84 15.36V15.44H12.16L11.68 16.88H15.84C15.84 16.96 15.76 17.04 15.76 17.2C15.6 17.44 15.36 17.68 15.12 17.84C14.8 18 14.4 18.08 14 18.08H12V19.36L16.08 23.68H18.88V23.6L15.2 19.68C16 19.52 16.64 19.36 17.12 19.04C17.6 18.72 18 18.32 18.24 17.84C18.4 17.6 18.48 17.28 18.48 16.96H19.76L20.16 15.52H18.4C18.4 15.12 18.32 14.72 18.08 14.32Z" fill="#CCCBE5"/>
<path d="M31.28 31.6401H0.719999C0.391999 31.6401 0.119999 31.3761 0.119999 31.0401V5.44012C0.119999 5.11212 0.383999 4.84012 0.719999 4.84012H7.08V0.720117C7.08 0.392117 7.344 0.120117 7.68 0.120117C8.016 0.120117 8.28 0.384117 8.28 0.720117V4.84012H23.728V0.720117C23.728 0.392117 23.992 0.120117 24.328 0.120117C24.664 0.120117 24.928 0.384117 24.928 0.720117V4.84012H31.288C31.616 4.84012 31.888 5.10412 31.888 5.44012V31.0401C31.888 31.3681 31.624 31.6401 31.288 31.6401H31.28ZM1.32 30.4401H30.688V6.04012H24.92V9.76012C24.92 10.0881 24.656 10.3601 24.32 10.3601C23.984 10.3601 23.72 10.0961 23.72 9.76012V6.04012H8.272V9.76012C8.272 10.0881 8.008 10.3601 7.672 10.3601C7.336 10.3601 7.072 10.0961 7.072 9.76012V6.04012H1.32V30.4481V30.4401Z" fill="url(#paint0_linear_2988_4279)"/>
</g>
<defs>
<linearGradient id="paint0_linear_2988_4279" x1="21.144" y1="-0.719883" x2="11.568" y2="34.5681" gradientUnits="userSpaceOnUse">
<stop offset="0.2" stop-color="#68358F"/>
<stop offset="1" stop-color="#B32882"/>
</linearGradient>
<clipPath id="clip0_2988_4279">
<rect width="32" height="32" fill="white"/>
</clipPath>
</defs>
</svg>
