<svg width="24" height="24" viewBox="0 0 24 24" fill="none" xmlns="http://www.w3.org/2000/svg">
<path d="M6.69995 13.7201C6.25995 13.7201 5.87995 13.5601 5.55995 13.2501C5.23995 12.9301 5.08995 12.5501 5.08995 12.1101C5.08995 11.6701 5.24995 11.2901 5.55995 10.9701C5.87995 10.6501 6.25995 10.5001 6.69995 10.5001C7.13995 10.5001 7.51995 10.6601 7.83995 10.9701C8.15995 11.2901 8.30995 11.6701 8.30995 12.1101C8.30995 12.5501 8.14995 12.9301 7.83995 13.2501C7.51995 13.5701 7.13995 13.7201 6.69995 13.7201ZM6.69995 17.6001C5.16995 17.6001 3.86995 17.0701 2.79995 16.0001C1.72995 14.9301 1.19995 13.6301 1.19995 12.1101C1.19995 10.5801 1.72995 9.2801 2.79995 8.2101C3.86995 7.1401 5.16995 6.6001 6.69995 6.6001C7.76995 6.6001 8.73995 6.8801 9.60995 7.4301C10.48 7.9801 11.14 8.7101 11.59 9.6001H20.22C20.34 9.6001 20.45 9.6201 20.56 9.6701C20.67 9.7101 20.77 9.7801 20.87 9.8801L22.47 11.4801C22.56 11.5701 22.6299 11.6701 22.67 11.7801C22.71 11.8801 22.73 12.0001 22.73 12.1201C22.73 12.2401 22.71 12.3501 22.67 12.4601C22.6299 12.5601 22.57 12.6601 22.47 12.7601L19.82 15.4001C19.75 15.4801 19.66 15.5401 19.55 15.5901C19.45 15.6401 19.34 15.6601 19.24 15.6801C19.14 15.6901 19.03 15.6801 18.93 15.6501C18.83 15.6201 18.73 15.5701 18.63 15.5001L17.4 14.5701L16 15.6101C15.92 15.6701 15.84 15.7101 15.75 15.7401C15.66 15.7701 15.57 15.7801 15.48 15.7801C15.39 15.7801 15.29 15.7601 15.2 15.7301C15.11 15.7001 15.02 15.6601 14.95 15.6001L13.54 14.6301H11.6C11.14 15.5201 10.48 16.2401 9.61995 16.8001C8.74995 17.3601 7.77995 17.6301 6.70995 17.6301L6.69995 17.6001ZM6.69995 16.1001C7.65995 16.1001 8.48995 15.8101 9.18995 15.2301C9.88995 14.6501 10.35 13.9401 10.56 13.1001H14L15.44 14.1001L17.39 12.6701L19.09 13.9701L20.96 12.1001L19.96 11.1001H10.56C10.35 10.2601 9.88995 9.5501 9.18995 8.9701C8.48995 8.3901 7.65995 8.1001 6.69995 8.1001C5.59995 8.1001 4.65995 8.4901 3.86995 9.2801C3.07995 10.0701 2.68995 11.0101 2.68995 12.1101C2.68995 13.2101 3.07995 14.1501 3.86995 14.9401C4.65995 15.7301 5.59995 16.1201 6.69995 16.1201V16.1001Z" fill="#673391"/>
</svg>
